# xmcd
#
# Track frame offsets:
#	150
#	9200
#	19997
#	32870
#	42242
#	58332
#	72190
#	82665
#	103600
#	113240
#	121775
#	132307
#
# Disc length: 2019 seconds
#
# Revision: 0
# Processed by: cddbd v1.5.1PL0 Copyright (c) Steve Scherf et al.
# Submitted via: EasyCDDAExtractor 8.0.2.1
#
DISCID=9607e10c
DTITLE=Reino Fungi
DYEAR=2004
DGENRE=Oldies
TTITLE0=Furos no escuro
TTITLE1=Meu destino
TTITLE2=Misterioso lugar
TTITLE3=Eu não controlo não
TTITLE4=Monte crista
TTITLE5=Livre como o ar
TTITLE6=Poesia com amor
TTITLE7=Casa de mato
TTITLE8=Rosa amarela
TTITLE9=Vivo tentando
TTITLE10=Brechó ataloide
TTITLE11=Alucinações baratas
EXTD=
EXTT0=
EXTT1=
EXTT2=
EXTT3=
EXTT4=
EXTT5=
EXTT6=
EXTT7=
EXTT8=
EXTT9=
EXTT10=
EXTT11=
PLAYORDER=
